<?xml version="1.0" encoding="utf-8"?>
<!-- Generator: Adobe Illustrator 16.0.0, SVG Export Plug-In . SVG Version: 6.00 Build 0)  -->
<!DOCTYPE svg PUBLIC "-//W3C//DTD SVG 1.1//EN" "http://www.w3.org/Graphics/SVG/1.1/DTD/svg11.dtd">
<svg version="1.1"
	 id="Layer_1" inkscape:version="0.91 r13725" sodipodi:docname="buttons.svg" xmlns:dc="http://purl.org/dc/elements/1.1/" xmlns:cc="http://creativecommons.org/ns#" xmlns:rdf="http://www.w3.org/1999/02/22-rdf-syntax-ns#" xmlns:svg="http://www.w3.org/2000/svg" xmlns:sodipodi="http://sodipodi.sourceforge.net/DTD/sodipodi-0.dtd" xmlns:inkscape="http://www.inkscape.org/namespaces/inkscape"
	 xmlns="http://www.w3.org/2000/svg" xmlns:xlink="http://www.w3.org/1999/xlink" x="0px" y="0px" width="198px" height="99px"
	 viewBox="0 0 198 99" enable-background="new 0 0 198 99" xml:space="preserve">
<sodipodi:namedview  id="namedview323" inkscape:window-x="65" inkscape:window-y="24" inkscape:current-layer="Layer_1" inkscape:pageopacity="0" inkscape:pageshadow="2" inkscape:window-width="1215" inkscape:window-height="1000" inkscape:guide-bbox="true" inkscape:window-maximized="1" guidetolerance="10" inkscape:zoom="4" inkscape:cx="45.252385" bordercolor="#666666" pagecolor="#ffffff" inkscape:cy="36.224987" showgrid="false" borderopacity="1" showguides="true" objecttolerance="10" gridtolerance="10">
	</sodipodi:namedview>
<g id="g5" transform="translate(-0.12000084,0)">
	<circle id="circle7" fill="#FFCC00" cx="16.62" cy="16.609" r="12"/>
	<polyline id="polyline9" fill="none" stroke="#655100" stroke-width="2.3049" stroke-miterlimit="10" points="21.453,12.745 
		15.788,20.571 11.775,16.658 	"/>
</g>
<g id="g11" transform="translate(-0.12000084,0)">
	<circle id="circle13" fill="#187CC1" cx="16.62" cy="49.465" r="12"/>
	<polyline id="polyline15" fill="#187CC1" stroke="#FFFFFF" stroke-width="2.3049" stroke-miterlimit="10" points="21.453,45.601 
		15.788,53.427 11.775,49.514 	"/>
</g>
<g id="g17" transform="translate(-0.12000084,0)">
	<circle id="circle19" fill="#727272" cx="16.62" cy="82.477" r="12"/>
	<polyline id="polyline21" fill="none" stroke="#27CCFF" stroke-width="2.3049" stroke-miterlimit="10" points="21.453,78.611 
		15.788,86.438 11.775,82.525 	"/>
</g>
<g id="g23" transform="translate(-0.26100159,0)">
	<circle id="circle25" fill="#FFCC00" cx="49.761" cy="16.609" r="12"/>
	<polygon id="polygon27" fill="#655100" points="45.412,15.313 49.307,15.313 49.307,11.53 54.701,16.875 49.331,22.245 
		49.331,18.563 45.412,18.539 	"/>
</g>
<g id="g29" transform="translate(-0.26100159,0)">
	<circle id="circle31" fill="#187CC1" cx="49.761" cy="49.465" r="12"/>
	<polygon id="polygon33" fill="#FFFFFF" points="45.412,48.169 49.307,48.169 49.307,44.386 54.701,49.731 49.331,55.102 
		49.331,51.419 45.412,51.395 	"/>
</g>
<g id="g35" transform="translate(-0.26100159,0)">
	<circle id="circle37" fill="#727272" cx="49.761" cy="82.477" r="12"/>
	<polygon id="polygon39" fill="#27CCFF" points="45.412,81.18 49.307,81.18 49.307,77.396 54.701,82.743 49.331,88.113 
		49.331,84.43 45.412,84.406 	"/>
</g>
<g id="g41" transform="translate(-0.54399872,0)">
	<rect id="rect43" x="105.544" y="6.109" fill="#FFCC00" width="21" height="21"/>
	<polygon id="polygon45" fill="#655100" points="114.44,19.083 114.44,15.116 110.586,15.116 116.032,9.621 121.502,15.091 
		117.751,15.091 117.726,19.083 	"/>
	<rect id="rect47" x="110.511" y="22.193" fill="#655100" width="1" height="1"/>
	<rect id="rect49" x="112.519" y="22.193" fill="#655100" width="1" height="1"/>
	<rect id="rect51" x="114.517" y="22.193" fill="#655100" width="1" height="1"/>
	<rect id="rect53" x="116.524" y="22.193" fill="#655100" width="1" height="1"/>
	<rect id="rect55" x="118.524" y="22.193" fill="#655100" width="1" height="1"/>
	<rect id="rect57" x="120.53" y="22.193" fill="#655100" width="1" height="1"/>
</g>
<g id="g59" transform="translate(-0.68600464,0)">
	<rect id="rect61" x="138.686" y="6.109" fill="#FFCC00" width="21" height="21"/>
	<polygon id="polygon63" fill="#655100" points="150.79,9.621 150.79,13.588 154.644,13.588 149.198,19.083 143.728,13.612 
		147.479,13.613 147.504,9.621 	"/>
	<rect id="rect65" x="143.652" y="22.193" fill="#655100" width="1" height="1"/>
	<rect id="rect67" x="145.661" y="22.193" fill="#655100" width="1" height="1"/>
	<rect id="rect69" x="147.659" y="22.193" fill="#655100" width="1" height="1"/>
	<rect id="rect71" x="149.666" y="22.193" fill="#655100" width="1" height="1"/>
	<rect id="rect73" x="151.666" y="22.193" fill="#655100" width="1" height="1"/>
	<rect id="rect75" x="153.672" y="22.193" fill="#655100" width="1" height="1"/>
</g>
<g id="g77" transform="translate(-0.54399872,0)">
	<rect id="rect79" x="105.544" y="38.965" fill="#187CC1" width="21" height="21"/>
	<polygon id="polygon81" fill="#FFFFFF" points="114.44,51.939 114.44,47.971 110.586,47.971 116.032,42.476 121.502,47.947 
		117.751,47.947 117.726,51.939 	"/>
	<rect id="rect83" x="110.511" y="55.049" fill="#FFFFFF" width="1" height="1"/>
	<rect id="rect85" x="112.519" y="55.049" fill="#FFFFFF" width="1" height="1"/>
	<rect id="rect87" x="114.517" y="55.049" fill="#FFFFFF" width="1" height="1"/>
	<rect id="rect89" x="116.524" y="55.049" fill="#FFFFFF" width="1" height="1"/>
	<rect id="rect91" x="118.524" y="55.049" fill="#FFFFFF" width="1" height="1"/>
	<rect id="rect93" x="120.53" y="55.049" fill="#FFFFFF" width="1" height="1"/>
</g>
<g id="g95" transform="translate(-0.68600464,0)">
	<rect id="rect97" x="138.686" y="38.965" fill="#187CC1" width="21" height="21"/>
	<polygon id="polygon99" fill="#FFFFFF" points="150.79,42.476 150.79,46.444 154.644,46.444 149.198,51.939 143.728,46.468 
		147.479,46.468 147.504,42.477 	"/>
	<rect id="rect101" x="143.652" y="55.049" fill="#FFFFFF" width="1" height="1"/>
	<rect id="rect103" x="145.661" y="55.049" fill="#FFFFFF" width="1" height="1"/>
	<rect id="rect105" x="147.659" y="55.049" fill="#FFFFFF" width="1" height="1"/>
	<rect id="rect107" x="149.666" y="55.049" fill="#FFFFFF" width="1" height="1"/>
	<rect id="rect109" x="151.666" y="55.049" fill="#FFFFFF" width="1" height="1"/>
	<rect id="rect111" x="153.672" y="55.049" fill="#FFFFFF" width="1" height="1"/>
</g>
<g id="g113" transform="translate(-0.54399872,0)">
	<rect id="rect115" x="105.544" y="71.977" fill="#727272" width="21" height="21"/>
	<polygon id="polygon117" fill="#27CCFF" points="114.44,84.95 114.44,80.982 110.586,80.982 116.032,75.488 121.502,80.959 
		117.751,80.958 117.726,84.95 	"/>
	<rect id="rect119" x="110.511" y="88.061" fill="#27CCFF" width="1" height="1"/>
	<rect id="rect121" x="112.519" y="88.061" fill="#27CCFF" width="1" height="1"/>
	<rect id="rect123" x="114.517" y="88.061" fill="#27CCFF" width="1" height="1"/>
	<rect id="rect125" x="116.524" y="88.061" fill="#27CCFF" width="1" height="1"/>
	<rect id="rect127" x="118.524" y="88.061" fill="#27CCFF" width="1" height="1"/>
	<rect id="rect129" x="120.53" y="88.061" fill="#27CCFF" width="1" height="1"/>
</g>
<g id="g131" transform="translate(-0.68600464,0)">
	<rect id="rect133" x="138.686" y="71.977" fill="#727272" width="21" height="21"/>
	<polygon id="polygon135" fill="#27CCFF" points="150.79,75.488 150.79,79.455 154.644,79.455 149.198,84.95 143.728,79.48 
		147.479,79.48 147.504,75.488 	"/>
	<rect id="rect137" x="143.652" y="88.061" fill="#27CCFF" width="1" height="1"/>
	<rect id="rect139" x="145.661" y="88.061" fill="#27CCFF" width="1" height="1"/>
	<rect id="rect141" x="147.659" y="88.061" fill="#27CCFF" width="1" height="1"/>
	<rect id="rect143" x="149.666" y="88.061" fill="#27CCFF" width="1" height="1"/>
	<rect id="rect145" x="151.666" y="88.061" fill="#27CCFF" width="1" height="1"/>
	<rect id="rect147" x="153.672" y="88.061" fill="#27CCFF" width="1" height="1"/>
</g>
<g id="g149" transform="translate(-0.40299988,0)">
	<path id="path151" inkscape:connector-curvature="0" fill="#655100" d="M87.445,22.097"/>
	<rect id="rect153" x="72.403" y="6.109" fill="#FFCC00" width="21" height="21"/>
	<polygon id="polygon155" fill="#655100" points="83.44,10.094 84.441,10.094 88.421,14.079 88.421,15.057 87.445,15.057 
		83.44,15.057 	"/>
	<polygon id="polygon157" fill="#655100" points="78.404,11.093 78.404,22.097 87.445,22.097 87.445,14.87 88.421,14.87 
		88.421,23.134 77.399,23.134 77.399,10.094 83.562,10.094 83.568,11.093 	"/>
	<rect id="rect159" x="79.399" y="12.111" fill="#655100" width="0.995" height="0.996"/>
	<rect id="rect161" x="81.395" y="12.111" fill="#655100" width="0.995" height="0.996"/>
	<rect id="rect163" x="79.399" y="14.103" fill="#655100" width="0.995" height="0.996"/>
	<rect id="rect165" x="81.395" y="14.103" fill="#655100" width="0.995" height="0.996"/>
	<rect id="rect167" x="79.399" y="16.116" fill="#655100" width="0.995" height="0.996"/>
	<rect id="rect169" x="81.395" y="16.116" fill="#655100" width="0.995" height="0.996"/>
	<rect id="rect171" x="83.403" y="16.116" fill="#655100" width="0.995" height="0.996"/>
	<rect id="rect173" x="85.4" y="16.116" fill="#655100" width="0.995" height="0.996"/>
	<rect id="rect175" x="79.399" y="18.118" fill="#655100" width="0.995" height="0.996"/>
	<rect id="rect177" x="81.395" y="18.118" fill="#655100" width="0.995" height="0.996"/>
	<rect id="rect179" x="79.399" y="20.132" fill="#655100" width="0.995" height="0.996"/>
	<rect id="rect181" x="81.395" y="20.132" fill="#655100" width="0.995" height="0.996"/>
	<rect id="rect183" x="83.403" y="18.118" fill="#655100" width="0.995" height="0.996"/>
	<rect id="rect185" x="85.4" y="18.118" fill="#655100" width="0.995" height="0.996"/>
	<rect id="rect187" x="83.403" y="20.132" fill="#655100" width="0.995" height="0.996"/>
	<rect id="rect189" x="85.4" y="20.132" fill="#655100" width="0.995" height="0.996"/>
</g>
<g id="g191" transform="translate(-0.40299988,0)">
	<path id="path193" inkscape:connector-curvature="0" fill="#006468" d="M87.445,54.953"/>
	<rect id="rect195" x="72.403" y="38.965" fill="#187CC1" width="21" height="21"/>
	<polygon id="polygon197" fill="#FCFCFC" points="83.44,42.95 84.441,42.95 88.421,46.935 88.421,47.912 87.445,47.912 
		83.44,47.912 	"/>
	<polygon id="polygon199" fill="#FFFFFF" points="78.404,43.949 78.404,54.953 87.445,54.953 87.445,47.726 88.421,47.726 
		88.421,55.99 77.399,55.99 77.399,42.95 83.586,42.95 83.599,43.951 	"/>
	<rect id="rect201" x="79.399" y="44.967" fill="#FFFFFF" width="0.995" height="0.996"/>
	<rect id="rect203" x="81.395" y="44.967" fill="#FFFFFF" width="0.995" height="0.996"/>
	<rect id="rect205" x="79.399" y="46.959" fill="#FFFFFF" width="0.995" height="0.996"/>
	<rect id="rect207" x="81.395" y="46.959" fill="#FFFFFF" width="0.995" height="0.996"/>
	<rect id="rect209" x="79.399" y="48.972" fill="#FFFFFF" width="0.995" height="0.996"/>
	<rect id="rect211" x="81.395" y="48.972" fill="#FFFFFF" width="0.995" height="0.996"/>
	<rect id="rect213" x="83.403" y="48.972" fill="#FFFFFF" width="0.995" height="0.996"/>
	<rect id="rect215" x="85.4" y="48.972" fill="#FFFFFF" width="0.995" height="0.996"/>
	<rect id="rect217" x="79.399" y="50.975" fill="#FFFFFF" width="0.995" height="0.995"/>
	<rect id="rect219" x="81.395" y="50.975" fill="#FFFFFF" width="0.995" height="0.995"/>
	<rect id="rect221" x="79.399" y="52.986" fill="#FFFFFF" width="0.995" height="0.996"/>
	<rect id="rect223" x="81.395" y="52.986" fill="#FFFFFF" width="0.995" height="0.996"/>
	<rect id="rect225" x="83.403" y="50.975" fill="#FFFFFF" width="0.995" height="0.995"/>
	<rect id="rect227" x="85.4" y="50.975" fill="#FFFFFF" width="0.995" height="0.995"/>
	<rect id="rect229" x="83.403" y="52.986" fill="#FFFFFF" width="0.995" height="0.996"/>
	<rect id="rect231" x="85.4" y="52.986" fill="#FFFFFF" width="0.995" height="0.996"/>
</g>
<g id="g233" transform="translate(-0.40299988,0)">
	<path id="path235" inkscape:connector-curvature="0" fill="#006468" d="M87.445,87.965"/>
	<rect id="rect237" x="72.403" y="71.977" fill="#727272" width="21" height="21"/>
	<polygon id="polygon239" fill="#27CCFF" points="83.44,75.961 84.441,75.961 88.421,79.945 88.421,80.924 87.445,80.924 
		83.44,80.924 	"/>
	<polygon id="polygon241" fill="#27CCFF" points="78.404,76.961 78.404,87.965 87.445,87.965 87.445,80.738 88.421,80.738 
		88.421,89.002 77.399,89.002 77.399,75.961 81.236,75.961 83.586,75.961 83.599,76.963 	"/>
	<rect id="rect243" x="79.399" y="77.979" fill="#27CCFF" width="0.995" height="0.996"/>
	<rect id="rect245" x="81.395" y="77.979" fill="#27CCFF" width="0.995" height="0.996"/>
	<rect id="rect247" x="79.399" y="79.97" fill="#27CCFF" width="0.995" height="0.996"/>
	<rect id="rect249" x="81.395" y="79.97" fill="#27CCFF" width="0.995" height="0.996"/>
	<rect id="rect251" x="79.399" y="81.984" fill="#27CCFF" width="0.995" height="0.996"/>
	<rect id="rect253" x="81.395" y="81.984" fill="#27CCFF" width="0.995" height="0.996"/>
	<rect id="rect255" x="83.403" y="81.984" fill="#27CCFF" width="0.995" height="0.996"/>
	<rect id="rect257" x="85.4" y="81.984" fill="#27CCFF" width="0.995" height="0.996"/>
	<rect id="rect259" x="79.399" y="83.986" fill="#27CCFF" width="0.995" height="0.996"/>
	<rect id="rect261" x="81.395" y="83.986" fill="#27CCFF" width="0.995" height="0.996"/>
	<rect id="rect263" x="79.399" y="85.999" fill="#27CCFF" width="0.995" height="0.996"/>
	<rect id="rect265" x="81.395" y="85.999" fill="#27CCFF" width="0.995" height="0.996"/>
	<rect id="rect267" x="83.403" y="83.986" fill="#27CCFF" width="0.995" height="0.996"/>
	<rect id="rect269" x="85.4" y="83.986" fill="#27CCFF" width="0.995" height="0.996"/>
	<rect id="rect271" x="83.403" y="85.999" fill="#27CCFF" width="0.995" height="0.996"/>
	<rect id="rect273" x="85.4" y="85.999" fill="#27CCFF" width="0.995" height="0.996"/>
</g>
<g id="g275" transform="translate(-0.82800293,0)">
	<rect id="rect277" x="171.828" y="6.109" fill="#FFCC00" width="21" height="21"/>
	<rect id="rect279" x="187.819" y="16.101" fill="#655100" width="0.999" height="0.998"/>
	<rect id="rect281" x="189.825" y="16.101" fill="#655100" width="0.999" height="0.998"/>
	<rect id="rect283" x="174.833" y="16.101" fill="#655100" width="0.999" height="0.998"/>
	
		<circle id="circle285" fill="none" stroke="#655100" stroke-width="1.9544" stroke-miterlimit="10" cx="181.803" cy="16.101" r="4.09"/>
	
		<rect id="rect287" x="175.889" y="18.437" transform="matrix(-0.6913 -0.7226 0.7226 -0.6913 284.8209 162.9887)" fill="#655100" width="2.68" height="4.424"/>
	<rect id="rect289" x="180.789" y="15.103" fill="#655100" width="2.027" height="1.996"/>
</g>
<g id="g291" transform="translate(-0.82800293,0)">
	<rect id="rect293" x="171.828" y="38.965" fill="#187CC1" width="21" height="21"/>
	<rect id="rect295" x="187.819" y="48.957" fill="#FFFFFF" width="0.999" height="0.998"/>
	<rect id="rect297" x="189.825" y="48.957" fill="#FFFFFF" width="0.999" height="0.998"/>
	<rect id="rect299" x="174.833" y="48.957" fill="#FFFFFF" width="0.999" height="0.998"/>
	
		<circle id="circle301" fill="none" stroke="#FFFFFF" stroke-width="1.9544" stroke-miterlimit="10" cx="181.803" cy="48.957" r="4.09"/>
	
		<rect id="rect303" x="175.874" y="51.282" transform="matrix(-0.6915 -0.7224 0.7224 -0.6915 261.1049 218.5052)" fill="#FFFFFF" width="2.681" height="4.423"/>
	<rect id="rect305" x="180.789" y="47.959" fill="#FFFFFF" width="2.027" height="1.996"/>
</g>
<g id="g307" transform="translate(-0.82800293,0)">
	<rect id="rect309" x="171.828" y="71.977" fill="#727272" width="21" height="21"/>
	<rect id="rect311" x="187.819" y="81.969" fill="#27CCFF" width="0.999" height="0.998"/>
	<rect id="rect313" x="189.825" y="81.969" fill="#27CCFF" width="0.999" height="0.998"/>
	<rect id="rect315" x="174.833" y="81.969" fill="#27CCFF" width="0.999" height="0.998"/>
	
		<circle id="circle317" fill="none" stroke="#27CCFF" stroke-width="1.9544" stroke-miterlimit="10" cx="181.803" cy="81.969" r="4.09"/>
	
		<rect id="rect319" x="175.887" y="84.301" transform="matrix(-0.6915 -0.7224 0.7224 -0.6915 237.2735 274.3649)" fill="#27CCFF" width="2.681" height="4.423"/>
	<rect id="rect321" x="180.789" y="80.97" fill="#27CCFF" width="2.027" height="1.996"/>
</g>
</svg>
