<?xml version="1.0" encoding="utf-8"?>
<!-- Generator: Adobe Illustrator 16.0.0, SVG Export Plug-In . SVG Version: 6.00 Build 0)  -->
<!DOCTYPE svg PUBLIC "-//W3C//DTD SVG 1.1//EN" "http://www.w3.org/Graphics/SVG/1.1/DTD/svg11.dtd">
<svg version="1.1" id="Layer_1" xmlns="http://www.w3.org/2000/svg" xmlns:xlink="http://www.w3.org/1999/xlink" x="0px" y="0px"
	 width="20px" height="20px" viewBox="0 0 20 20" enable-background="new 0 0 20 20" xml:space="preserve">
<rect fill="#990000" width="20" height="20"/>
<rect x="7.987" y="18" fill="#FF2222" width="0.992" height="0.992"/>
<rect x="8.979" y="17.008" fill="#FF2222" width="0.992" height="0.992"/>
<rect x="10" y="16.016" fill="#FF2222" width="0.992" height="0.992"/>
<rect x="10.992" y="15.023" fill="#FF2222" width="0.992" height="0.992"/>
<rect x="11.984" y="14.032" fill="#FF2222" width="0.992" height="0.991"/>
<rect x="12.977" y="12.984" fill="#FF2222" width="0.991" height="0.992"/>
<rect x="13.968" y="11.993" fill="#FF2222" width="0.992" height="0.991"/>
<rect x="15.038" y="11.001" fill="#FF2222" width="0.991" height="0.992"/>
<rect x="10.992" y="17.991" fill="#FF2222" width="0.992" height="0.991"/>
<rect x="11.984" y="16.999" fill="#FF2222" width="0.992" height="0.992"/>
<rect x="13.005" y="16.007" fill="#FF2222" width="0.992" height="0.992"/>
<rect x="13.997" y="15.016" fill="#FF2222" width="0.991" height="0.991"/>
<rect x="14.988" y="14.023" fill="#FF2222" width="0.992" height="0.992"/>
<rect x="14.032" y="18" fill="#FF2222" width="0.991" height="0.992"/>
<rect x="15.023" y="17.008" fill="#FF2222" width="0.992" height="0.992"/>
<rect x="16.973" y="18" fill="#FF2222" width="0.992" height="0.992"/>
<rect x="17.965" y="17.008" fill="#FF2222" width="0.992" height="0.992"/>
<rect x="16.045" y="16.016" fill="#FF2222" width="0.992" height="0.992"/>
<rect x="17.037" y="15.023" fill="#FF2222" width="0.992" height="0.992"/>
<rect x="18.029" y="14.032" fill="#FF2222" width="0.992" height="0.991"/>
<rect x="15.98" y="12.977" fill="#FF2222" width="0.992" height="0.991"/>
<rect x="16.973" y="11.984" fill="#FF2222" width="0.992" height="0.992"/>
<rect x="18.043" y="10.992" fill="#FF2222" width="0.992" height="0.992"/>
<rect x="16.029" y="10" fill="#FF2222" width="0.992" height="0.992"/>
<rect x="17.021" y="9.008" fill="#FF2222" width="0.992" height="0.992"/>
<rect x="18.014" y="8.016" fill="#FF2222" width="0.992" height="0.992"/>
</svg>
